<?xml version="1.0" encoding="utf-8"?>
<!-- Generator: Adobe Illustrator 15.0.0, SVG Export Plug-In . SVG Version: 6.00 Build 0)  -->
<!DOCTYPE svg PUBLIC "-//W3C//DTD SVG 1.1//EN" "http://www.w3.org/Graphics/SVG/1.1/DTD/svg11.dtd">
<svg version="1.1" id="Layer_1" xmlns="http://www.w3.org/2000/svg" xmlns:xlink="http://www.w3.org/1999/xlink" x="0px" y="0px"
	 width="100px" height="100px" viewBox="0 0 100 100" enable-background="new 0 0 100 100" xml:space="preserve">
<g>
	<path d="M45.186,41.184v4.533l-16.112-6.984v-3.875l16.112-6.983v4.564l-11.227,4.325L45.186,41.184z"/>
	<path d="M55.148,27.778l-4.485,18.467c-0.149,0.608-0.279,1.089-0.392,1.441c-0.112,0.353-0.283,0.629-0.512,0.824
		c-0.229,0.198-0.564,0.296-1.001,0.296c-1.089,0-1.634-0.471-1.634-1.409c0-0.246,0.107-0.859,0.321-1.841l4.469-18.467
		c0.235-0.982,0.459-1.655,0.672-2.018c0.214-0.363,0.63-0.544,1.251-0.544c0.533,0,0.941,0.128,1.225,0.384
		c0.282,0.256,0.424,0.609,0.424,1.057C55.484,26.299,55.372,26.902,55.148,27.778z"/>
	<path d="M73.519,38.732l-16.112,7.016v-4.532l11.26-4.42l-11.26-4.357v-4.5l16.112,6.951V38.732z"/>
</g>
<path d="M83.889,1.852H18.704c-2.454,0-4.444,1.99-4.444,4.444v56.296c0,2.454,1.99,4.444,4.444,4.444h65.185
	c2.455,0,4.445-1.991,4.445-4.444V6.296C88.334,3.841,86.344,1.852,83.889,1.852z M72.777,4.815c1.634,0,2.963,1.329,2.963,2.963
	s-1.329,2.963-2.963,2.963c-1.633,0-2.963-1.329-2.963-2.963S71.145,4.815,72.777,4.815z M64.629,4.815
	c1.635,0,2.964,1.329,2.964,2.963s-1.329,2.963-2.964,2.963c-1.633,0-2.963-1.329-2.963-2.963S62.996,4.815,64.629,4.815z
	 M83.889,62.593H18.704V13.704h65.185V62.593z M80.926,10.741c-1.633,0-2.963-1.329-2.963-2.963s1.33-2.963,2.963-2.963
	s2.963,1.329,2.963,2.963S82.559,10.741,80.926,10.741z"/>
</svg>
